<svg width="157" height="40" viewBox="0 0 157 40" fill="none" xmlns="http://www.w3.org/2000/svg">
<path d="M49.2613 11.8119V8.98887H61.3875V11.8119H57.0373V23.3709H53.6187V11.8119H49.2613ZM63.0809 23.3709V8.98887H69.0075C70.0817 8.98887 71.0086 9.18316 71.7885 9.57172C72.5731 9.95563 73.1779 10.5081 73.6029 11.229C74.028 11.9453 74.2405 12.795 74.2405 13.7782C74.2405 14.7754 74.0233 15.6228 73.5888 16.3203C73.1546 17.0132 72.5381 17.5422 71.7394 17.9074C70.9409 18.2679 69.9952 18.4481 68.9023 18.4481H65.1544V15.7094H68.2578C68.781 15.7094 69.2175 15.6415 69.5679 15.5057C69.9227 15.3653 70.1913 15.1546 70.3735 14.8737C70.5556 14.5881 70.6466 14.223 70.6466 13.7782C70.6466 13.3334 70.5556 12.9659 70.3735 12.6757C70.1913 12.3807 69.9227 12.1607 69.5679 12.0156C69.213 11.8657 68.7763 11.7908 68.2578 11.7908H66.5485V23.3709H63.0809ZM71.1581 16.7979L74.7307 23.3709H70.9479L67.4452 16.7979H71.1581ZM79.2457 23.3709H75.5189L80.3596 8.98887H84.976L89.8167 23.3709H86.0899L82.7204 12.6125H82.6083L79.2457 23.3709ZM78.7483 17.7108H86.5382V20.3512H78.7483V17.7108ZM92.6923 8.98887L95.9009 19.5226H96.0199L99.2282 8.98887H103.109L98.2685 23.3709H93.652L88.8115 8.98887H92.6923ZM104.654 23.3709V8.98887H114.658V11.8119H108.121V14.7613H114.146V17.5914H108.121V20.5479H114.658V23.3709H104.654ZM116.829 23.3709V8.98887H120.297V20.5479H126.265V23.3709H116.829ZM136.917 13.6869C136.837 13.3919 136.721 13.1321 136.567 12.9074C136.412 12.678 136.223 12.4837 135.999 12.3246C135.775 12.1654 135.518 12.046 135.228 11.9664C134.939 11.8821 134.621 11.84 134.276 11.84C133.58 11.84 132.978 12.0085 132.469 12.3456C131.964 12.6827 131.574 13.1743 131.299 13.8203C131.023 14.4617 130.885 15.2412 130.885 16.1588C130.885 17.0811 131.018 17.8676 131.284 18.5183C131.551 19.1691 131.936 19.6654 132.44 20.0071C132.945 20.3489 133.557 20.5198 134.276 20.5198C134.911 20.5198 135.448 20.4168 135.887 20.2108C136.331 20.0001 136.667 19.7028 136.896 19.3189C137.125 18.935 137.239 18.4832 137.239 17.9636L137.884 18.0408H134.395V15.5057H140.581V17.4088C140.581 18.6963 140.307 19.7988 139.761 20.7164C139.219 21.634 138.472 22.3386 137.519 22.8302C136.571 23.3217 135.481 23.5675 134.248 23.5675C132.879 23.5675 131.677 23.2702 130.64 22.6756C129.603 22.0811 128.795 21.2337 128.216 20.1335C127.637 19.0287 127.348 17.7178 127.348 16.2009C127.348 15.0212 127.523 13.9748 127.873 13.0619C128.223 12.1443 128.711 11.3671 129.337 10.7304C129.967 10.0937 130.696 9.61152 131.523 9.28381C132.354 8.9561 133.248 8.79224 134.206 8.79224C135.037 8.79224 135.81 8.91161 136.524 9.15037C137.244 9.38914 137.879 9.72624 138.43 10.1616C138.986 10.597 139.436 11.1143 139.782 11.7136C140.127 12.3128 140.342 12.9706 140.427 13.6869H136.917ZM156.166 16.1799C156.166 17.7623 155.862 19.1036 155.255 20.2037C154.648 21.3039 153.826 22.1396 152.789 22.7107C151.757 23.2819 150.599 23.5675 149.314 23.5675C148.025 23.5675 146.865 23.2797 145.833 22.7037C144.801 22.1279 143.981 21.2922 143.374 20.1967C142.772 19.0966 142.47 17.7576 142.47 16.1799C142.47 14.5975 142.772 13.2562 143.374 12.156C143.981 11.0558 144.801 10.2201 145.833 9.64898C146.865 9.07781 148.025 8.79224 149.314 8.79224C150.599 8.79224 151.757 9.07781 152.789 9.64898C153.826 10.2201 154.648 11.0558 155.255 12.156C155.862 13.2562 156.166 14.5975 156.166 16.1799ZM152.621 16.1799C152.621 15.2435 152.488 14.4523 152.222 13.8063C151.96 13.1602 151.582 12.671 151.087 12.3386C150.596 12.0062 150.006 11.84 149.314 11.84C148.628 11.84 148.037 12.0062 147.542 12.3386C147.047 12.671 146.667 13.1602 146.4 13.8063C146.139 14.4523 146.008 15.2435 146.008 16.1799C146.008 17.1162 146.139 17.9074 146.4 18.5535C146.667 19.1995 147.047 19.6888 147.542 20.0212C148.037 20.3536 148.628 20.5198 149.314 20.5198C150.006 20.5198 150.596 20.3536 151.087 20.0212C151.582 19.6888 151.96 19.1995 152.222 18.5535C152.488 17.9074 152.621 17.1162 152.621 16.1799Z" fill="#0C264C"/>
<path d="M57.3596 27.3749H58.4343L60.303 31.9484H60.3716L62.2402 27.3749H63.3149V33.2585H62.4723V29.001H62.4178L60.687 33.25H59.9876L58.2567 28.9981H58.2023V33.2585H57.3596V27.3749ZM67.7219 33.3475C67.2883 33.3475 66.9146 33.2547 66.6015 33.0688C66.2899 32.8812 66.0493 32.6178 65.8792 32.279C65.7111 31.9381 65.627 31.5387 65.627 31.081C65.627 30.6288 65.7111 30.2306 65.8792 29.8857C66.0493 29.541 66.286 29.272 66.59 29.0785C66.8956 28.885 67.2529 28.7884 67.6618 28.7884C67.9102 28.7884 68.1509 28.8295 68.3838 28.912C68.617 28.9942 68.8261 29.1235 69.0115 29.2999C69.1969 29.476 69.343 29.7048 69.45 29.9864C69.5569 30.2659 69.6105 30.6059 69.6105 31.0061V31.3106H66.1114V30.6673H68.7707C68.7707 30.4412 68.725 30.241 68.6333 30.0668C68.5416 29.8906 68.4125 29.7518 68.2464 29.6502C68.0821 29.5486 67.8891 29.4981 67.6674 29.4981C67.4268 29.4981 67.2166 29.5574 67.037 29.676C66.8592 29.7929 66.7218 29.9461 66.6243 30.1358C66.5288 30.3235 66.4811 30.5275 66.4811 30.7477V31.2504C66.4811 31.5452 66.5326 31.7963 66.6358 32.003C66.7409 32.21 66.887 32.3679 67.0742 32.4772C67.2614 32.5843 67.4802 32.6381 67.7306 32.6381C67.8929 32.6381 68.0411 32.6149 68.1747 32.5691C68.3085 32.5212 68.424 32.4502 68.5215 32.3565C68.619 32.2625 68.6934 32.1468 68.745 32.0088L69.556 32.1554C69.491 32.3947 69.3744 32.6044 69.2063 32.7846C69.0402 32.9626 68.831 33.1014 68.5789 33.201C68.3285 33.2987 68.0429 33.3475 67.7219 33.3475ZM73.7495 33.3475C73.316 33.3475 72.9423 33.2547 72.6292 33.0688C72.3176 32.8812 72.077 32.6178 71.9069 32.279C71.7387 31.9381 71.6547 31.5387 71.6547 31.081C71.6547 30.6288 71.7387 30.2306 71.9069 29.8857C72.077 29.541 72.3137 29.272 72.6175 29.0785C72.9233 28.885 73.2806 28.7884 73.6895 28.7884C73.9378 28.7884 74.1786 28.8295 74.4115 28.912C74.6447 28.9942 74.8538 29.1235 75.0392 29.2999C75.2246 29.476 75.3707 29.7048 75.4777 29.9864C75.5846 30.2659 75.6382 30.6059 75.6382 31.0061V31.3106H72.1391V30.6673H74.7984C74.7984 30.4412 74.7527 30.241 74.661 30.0668C74.5691 29.8906 74.4402 29.7518 74.2741 29.6502C74.1098 29.5486 73.9168 29.4981 73.6951 29.4981C73.4543 29.4981 73.2443 29.5574 73.0647 29.676C72.8869 29.7929 72.7495 29.9461 72.652 30.1358C72.5565 30.3235 72.5088 30.5275 72.5088 30.7477V31.2504C72.5088 31.5452 72.5603 31.7963 72.6634 32.003C72.7686 32.21 72.9147 32.3679 73.1019 32.4772C73.2891 32.5843 73.5079 32.6381 73.7583 32.6381C73.9206 32.6381 74.0685 32.6149 74.2024 32.5691C74.3362 32.5212 74.4517 32.4502 74.5492 32.3565C74.6467 32.2625 74.7211 32.1468 74.7727 32.0088L75.5837 32.1554C75.5187 32.3947 75.4021 32.6044 75.234 32.7846C75.0679 32.9626 74.8587 33.1014 74.6065 33.201C74.3561 33.2987 74.0706 33.3475 73.7495 33.3475ZM79.9348 28.8459V29.5354H77.5304V28.8459H79.9348ZM78.1753 27.7886H79.0321V31.9628C79.0321 32.1295 79.057 32.2549 79.1068 32.3392C79.1563 32.4217 79.2204 32.4781 79.2986 32.5086C79.3789 32.5374 79.4659 32.5518 79.5594 32.5518C79.6282 32.5518 79.6885 32.547 79.74 32.5374C79.7916 32.5279 79.8317 32.5201 79.8604 32.5145L80.0151 33.2241C79.9655 33.2432 79.8947 33.2623 79.803 33.2814C79.7113 33.3026 79.5968 33.314 79.4591 33.316C79.2336 33.3199 79.0236 33.2796 78.8288 33.1954C78.6338 33.1111 78.4762 32.9808 78.3558 32.8046C78.2354 32.6284 78.1753 32.4073 78.1753 32.141V27.7886ZM82.1741 33.2585V28.8459H83.0308V33.2585H82.1741ZM82.6067 28.165C82.4576 28.165 82.3296 28.1151 82.2227 28.0156C82.1176 27.914 82.0651 27.7933 82.0651 27.6536C82.0651 27.512 82.1176 27.3913 82.2227 27.2915C82.3296 27.1902 82.4576 27.1394 82.6067 27.1394C82.7558 27.1394 82.8827 27.1902 82.9878 27.2915C83.0947 27.3913 83.1483 27.512 83.1483 27.6536C83.1483 27.7933 83.0947 27.914 82.9878 28.0156C82.8827 28.1151 82.7558 28.165 82.6067 28.165ZM86.3317 30.6385V33.2585H85.4747V28.8459H86.2972V29.5641H86.3517C86.453 29.3304 86.6115 29.1428 86.8274 29.001C87.0453 28.8592 87.3194 28.7884 87.6501 28.7884C87.95 28.7884 88.2125 28.8515 88.438 28.9781C88.6636 29.1026 88.8384 29.2882 88.9626 29.5354C89.0868 29.7823 89.1489 30.0879 89.1489 30.4518V33.2585H88.2919V30.5551C88.2919 30.2354 88.2087 29.9855 88.0426 29.8055C87.8763 29.6235 87.6481 29.5324 87.3578 29.5324C87.1589 29.5324 86.9823 29.5756 86.8274 29.6617C86.6747 29.7479 86.5532 29.8742 86.4635 30.041C86.3757 30.2057 86.3317 30.4048 86.3317 30.6385ZM93.4348 35.0052C93.0851 35.0052 92.7842 34.9592 92.532 34.8673C92.2817 34.7754 92.0774 34.6538 91.9187 34.5026C91.7602 34.3511 91.6416 34.1855 91.5634 34.0055L92.2998 33.701C92.3516 33.7852 92.4202 33.8742 92.5063 33.9682C92.5941 34.0639 92.7125 34.1452 92.8616 34.2122C93.0124 34.2794 93.2063 34.3129 93.4433 34.3129C93.7681 34.3129 94.0367 34.2333 94.2487 34.0745C94.4608 33.9174 94.5668 33.6664 94.5668 33.3217V32.454H94.5124C94.4608 32.5479 94.3862 32.6524 94.2889 32.7673C94.1931 32.8821 94.0613 32.9817 93.8932 33.0659C93.7251 33.1502 93.5065 33.1924 93.2371 33.1924C92.8894 33.1924 92.576 33.1111 92.2971 32.9482C92.02 32.7835 91.8004 32.5412 91.6378 32.2214C91.4773 31.8996 91.3971 31.5041 91.3971 31.0349C91.3971 30.5657 91.4764 30.1634 91.6351 29.8284C91.7954 29.4931 92.0153 29.2365 92.2942 29.0585C92.5731 28.8785 92.8894 28.7884 93.2427 28.7884C93.5159 28.7884 93.7367 28.8342 93.9049 28.9264C94.073 29.0163 94.2037 29.1217 94.2974 29.2423C94.3929 29.363 94.4664 29.4693 94.518 29.5612H94.5812V28.8459H95.4207V33.3563C95.4207 33.7354 95.3328 34.0466 95.1571 34.2897C94.9813 34.5331 94.7435 34.7131 94.4435 34.83C94.1454 34.9468 93.8091 35.0052 93.4348 35.0052ZM93.4263 32.4801C93.6726 32.4801 93.8809 32.4226 94.051 32.3075C94.223 32.1909 94.3527 32.0241 94.4406 31.8077C94.5305 31.5893 94.5753 31.3279 94.5753 31.0235C94.5753 30.7266 94.5314 30.4652 94.4435 30.2392C94.3557 30.0131 94.2268 29.8369 94.0566 29.7106C93.8867 29.5823 93.6764 29.5181 93.4263 29.5181C93.1682 29.5181 92.9533 29.585 92.7813 29.7192C92.6094 29.8513 92.4796 30.0313 92.3917 30.2592C92.3056 30.4873 92.2626 30.7419 92.2626 31.0235C92.2626 31.3127 92.3065 31.5664 92.3944 31.7848C92.4823 32.003 92.6123 32.1736 92.7842 32.296C92.9582 32.4187 93.172 32.4801 93.4263 32.4801ZM103.343 28.8459V29.5354H100.938V28.8459H103.343ZM101.583 27.7886H102.44V31.9628C102.44 32.1295 102.465 32.2549 102.515 32.3392C102.564 32.4217 102.628 32.4781 102.707 32.5086C102.787 32.5374 102.874 32.5518 102.968 32.5518C103.036 32.5518 103.096 32.547 103.148 32.5374C103.2 32.5279 103.24 32.5201 103.268 32.5145L103.423 33.2241C103.374 33.2432 103.303 33.2623 103.211 33.2814C103.119 33.3026 103.005 33.314 102.867 33.316C102.642 33.3199 102.432 33.2796 102.237 33.1954C102.042 33.1111 101.884 32.9808 101.764 32.8046C101.643 32.6284 101.583 32.4073 101.583 32.141V27.7886ZM106.533 30.6385V33.2585H105.677V27.3749H106.522V29.5641H106.576C106.68 29.3266 106.837 29.1378 107.049 28.9981C107.261 28.8583 107.538 28.7884 107.88 28.7884C108.182 28.7884 108.446 28.8506 108.671 28.9751C108.899 29.0996 109.074 29.2855 109.199 29.5324C109.325 29.7776 109.388 30.0841 109.388 30.4518V33.2585H108.531V30.5551C108.531 30.2315 108.448 29.9805 108.282 29.8026C108.115 29.6226 107.884 29.5324 107.588 29.5324C107.386 29.5324 107.204 29.5756 107.044 29.6617C106.885 29.7479 106.76 29.8742 106.668 30.041C106.578 30.2057 106.533 30.4048 106.533 30.6385ZM113.72 33.3475C113.286 33.3475 112.912 33.2547 112.599 33.0688C112.288 32.8812 112.047 32.6178 111.877 32.279C111.709 31.9381 111.625 31.5387 111.625 31.081C111.625 30.6288 111.709 30.2306 111.877 29.8857C112.047 29.541 112.284 29.272 112.588 29.0785C112.893 28.885 113.251 28.7884 113.659 28.7884C113.908 28.7884 114.148 28.8295 114.382 28.912C114.615 28.9942 114.824 29.1235 115.009 29.2999C115.194 29.476 115.341 29.7048 115.448 29.9864C115.555 30.2659 115.608 30.6059 115.608 31.0061V31.3106H112.109V30.6673H114.769C114.769 30.4412 114.723 30.241 114.631 30.0668C114.539 29.8906 114.41 29.7518 114.244 29.6502C114.08 29.5486 113.887 29.4981 113.665 29.4981C113.424 29.4981 113.214 29.5574 113.035 29.676C112.857 29.7929 112.719 29.9461 112.622 30.1358C112.526 30.3235 112.479 30.5275 112.479 30.7477V31.2504C112.479 31.5452 112.53 31.7963 112.634 32.003C112.738 32.21 112.885 32.3679 113.072 32.4772C113.259 32.5843 113.478 32.6381 113.728 32.6381C113.891 32.6381 114.039 32.6149 114.172 32.5691C114.306 32.5212 114.422 32.4502 114.519 32.3565C114.617 32.2625 114.691 32.1468 114.743 32.0088L115.554 32.1554C115.489 32.3947 115.372 32.6044 115.204 32.7846C115.038 32.9626 114.829 33.1014 114.576 33.201C114.326 33.2987 114.041 33.3475 113.72 33.3475ZM122.231 33.2585L120.936 28.8459H121.822L122.684 32.0864H122.727L123.593 28.8459H124.478L125.338 32.072H125.381L126.238 28.8459H127.123L125.831 33.2585H124.957L124.063 30.0724H123.997L123.102 33.2585H122.231ZM130.948 33.3475C130.535 33.3475 130.175 33.2527 129.867 33.0632C129.56 32.8736 129.321 32.6084 129.151 32.2673C128.981 31.9264 128.896 31.5282 128.896 31.0722C128.896 30.6145 128.981 30.2142 129.151 29.8715C129.321 29.5286 129.56 29.2623 129.867 29.0729C130.175 28.8832 130.535 28.7884 130.948 28.7884C131.361 28.7884 131.721 28.8832 132.028 29.0729C132.336 29.2623 132.575 29.5286 132.745 29.8715C132.915 30.2142 133 30.6145 133 31.0722C133 31.5282 132.915 31.9264 132.745 32.2673C132.575 32.6084 132.336 32.8736 132.028 33.0632C131.721 33.2527 131.361 33.3475 130.948 33.3475ZM130.951 32.6266C131.218 32.6266 131.44 32.5556 131.616 32.4138C131.791 32.2722 131.921 32.0835 132.005 31.8479C132.091 31.6124 132.134 31.3529 132.134 31.0695C132.134 30.7879 132.091 30.5293 132.005 30.2938C131.921 30.0563 131.791 29.8657 131.616 29.7221C131.44 29.5785 131.218 29.5066 130.951 29.5066C130.681 29.5066 130.458 29.5785 130.28 29.7221C130.104 29.8657 129.974 30.0563 129.888 30.2938C129.804 30.5293 129.761 30.7879 129.761 31.0695C129.761 31.3529 129.804 31.6124 129.888 31.8479C129.974 32.0835 130.104 32.2722 130.28 32.4138C130.458 32.5556 130.681 32.6266 130.951 32.6266ZM135.248 33.2585V28.8459H136.076V29.5468H136.122C136.202 29.3093 136.343 29.1226 136.546 28.9866C136.75 28.8486 136.981 28.7799 137.239 28.7799C137.293 28.7799 137.356 28.7817 137.428 28.7855C137.503 28.7893 137.561 28.7942 137.603 28.7999V29.6214C137.569 29.612 137.508 29.6014 137.42 29.59C137.332 29.5765 137.244 29.5697 137.156 29.5697C136.954 29.5697 136.773 29.6129 136.615 29.6992C136.458 29.7834 136.334 29.9012 136.242 30.0524C136.15 30.2019 136.104 30.3722 136.104 30.5639V33.2585H135.248ZM140.493 27.3749V33.2585H139.636V27.3749H140.493ZM144.585 33.3448C144.229 33.3448 143.912 33.2538 143.633 33.0718C143.356 32.8879 143.138 32.6264 142.98 32.2875C142.823 31.9466 142.745 31.5376 142.745 31.0608C142.745 30.5839 142.824 30.176 142.983 29.8369C143.143 29.4981 143.363 29.2385 143.642 29.0585C143.921 28.8785 144.237 28.7884 144.59 28.7884C144.864 28.7884 145.083 28.8342 145.25 28.9264C145.418 29.0163 145.547 29.1217 145.639 29.2423C145.733 29.363 145.805 29.4693 145.857 29.5612H145.909V27.3749H146.766V33.2585H145.929V32.572H145.857C145.805 32.6657 145.731 32.7729 145.634 32.8936C145.538 33.0142 145.406 33.1196 145.238 33.2097C145.07 33.2996 144.852 33.3448 144.585 33.3448ZM144.774 32.6122C145.02 32.6122 145.228 32.547 145.399 32.4167C145.571 32.2846 145.7 32.1017 145.788 31.8679C145.878 31.6345 145.923 31.3623 145.923 31.0522C145.923 30.7457 145.879 30.4776 145.791 30.2477C145.703 30.0181 145.574 29.839 145.404 29.7106C145.234 29.5823 145.024 29.5181 144.774 29.5181C144.516 29.5181 144.301 29.585 144.129 29.7192C143.957 29.8533 143.827 30.0363 143.739 30.2679C143.653 30.4996 143.61 30.761 143.61 31.0522C143.61 31.347 143.654 31.6124 143.742 31.8479C143.83 32.0835 143.96 32.2702 144.132 32.4082C144.306 32.5441 144.52 32.6122 144.774 32.6122Z" fill="#0C264C"/>
<path d="M20.3992 39.9103C31.3931 39.9103 40.3054 30.976 40.3054 19.9551C40.3054 8.9342 31.3931 0 20.3992 0C9.40523 0 0.492859 8.9342 0.492859 19.9551C0.492859 30.976 9.40523 39.9103 20.3992 39.9103Z" fill="white"/>
<path d="M20.3992 19.9551C28.6318 19.9551 35.8994 20.5622 40.2476 21.4885C40.2859 20.9825 40.3054 20.471 40.3054 19.9551C40.3054 8.93425 31.3931 0 20.3992 0C9.40525 0 0.492859 8.93425 0.492859 19.9551C0.492859 20.471 0.512389 20.9825 0.550807 21.4885C4.89908 20.5622 12.1665 19.9551 20.3992 19.9551Z" fill="url(#paint0_linear_4_184)"/>
<path d="M40.1544 22.4243C40.1925 22.1145 40.2236 21.8026 40.2476 21.4884C35.8994 20.5622 28.6318 19.9551 20.3992 19.9551C12.1665 19.9551 4.89911 20.5622 0.550842 21.4884L22.1586 21.6181L1.85008 23.0289L5.8716 23.8352L1.0374 24.6044C1.28247 25.6337 1.60693 26.6321 2.00414 27.5925L10.4962 27.262L6.97745 27.9674L24.5714 28.2698L2.76513 29.2202C3.47377 30.5728 4.33241 31.8337 5.31943 32.9809L14.3167 33.3089L6.60387 34.3397C7.06477 34.784 7.54711 35.2062 8.04887 35.6047L13.3113 35.9292L9.25607 36.4921C12.4358 38.6494 16.2705 39.9103 20.3991 39.9103C24.3184 39.9103 27.973 38.7746 31.0535 36.8139L23.8678 36.1307H32.0565C32.7106 35.6564 33.3349 35.1436 33.9258 34.5948L23.8678 33.6112L35.634 32.7977C35.7463 32.664 35.8566 32.5289 35.9653 32.3923L21.8569 31.1921L37.2682 30.5519C37.4229 30.3049 37.5724 30.0546 37.7163 29.8006L32.7149 28.975L36.9373 28.6725L33.8207 28.3703L37.4401 27.6647L21.1531 25.7498H39.4523C39.641 25.1249 39.8006 24.4876 39.9282 23.8386L33.6196 22.4239H40.1544V22.4243Z" fill="url(#paint1_linear_4_184)"/>
<path d="M20.3993 19.9551C18.1674 19.9551 16.0072 20 13.9562 20.0836L24.0187 20.7613L18.9415 20.9628L29.4476 21.4163L17.4837 22.5249L26.6327 23.18L18.2881 23.6838L35.9324 24.2885L26.2808 22.424L30.9054 22.2225L29.3472 21.8698L36.0833 21.517L30.6039 20.7611L34.3789 20.6121C30.436 20.1987 25.6118 19.9551 20.3993 19.9551Z" fill="#4392E3"/>
<path d="M15.3222 25.6495L30.7547 27.665L15.6238 26.2037L27.9396 28.1187L25.2754 28.5219L31.6093 29.0257L15.7244 29.9832L23.918 29.076H22.2592L25.2251 28.1187L17.3832 27.2115L19.0923 27.1109L9.28998 25.7502L14.6687 26.0527L12.4067 25.4983L15.3222 25.6495Z" fill="#4392E3"/>
<path d="M37.5945 17.5862L38.1464 17.033C38.309 16.87 38.309 16.6057 38.1464 16.4427C37.9837 16.2796 37.7201 16.2796 37.5573 16.4427L37.5118 16.4883L37.3347 14.1381L37.8891 13.5823C38.0518 13.4193 38.0518 13.1549 37.8891 12.9919C37.7266 12.8289 37.4627 12.8289 37.3002 12.9919L37.252 13.0403L37.0422 10.2573C38.5636 8.8185 39.7692 7.67322 40.0418 7.39992C41.12 6.31897 40.78 4.68079 40.6141 4.51446C40.4482 4.34812 38.8142 4.00726 37.7358 5.08821C37.4632 5.36151 36.3206 6.57001 34.8852 8.09506L32.1091 7.88484L32.1573 7.83648C32.32 7.67347 32.32 7.40913 32.1573 7.24612C31.9948 7.08311 31.7312 7.08311 31.5684 7.24612L31.014 7.80194L28.6694 7.62434L28.7152 7.57866C28.8777 7.41565 28.8777 7.15129 28.7152 6.98828C28.5524 6.82529 28.2888 6.82529 28.1261 6.98828L27.5744 7.54142L23.9498 7.26684L23.1367 8.08176L29.7562 9.99425L31.6545 11.5348C29.9553 13.5699 27.2843 16.6465 27.2843 16.6465L23.6927 16.2225L23.1452 16.7712L25.7333 18.3678C25.451 18.6838 25.5506 18.9499 25.5506 18.9499C25.0529 19.4487 25.2686 19.8979 25.2686 19.8979C25.2686 19.8979 25.7165 20.1141 26.2143 19.6151C26.2143 19.6151 26.4798 19.7149 26.7949 19.4321L28.3877 22.0265L28.9351 21.4777L28.5121 17.8772C28.5121 17.8772 31.5812 15.1997 33.6113 13.4963L35.1479 15.3993L37.0559 22.0349L37.8687 21.22L37.5945 17.5862Z" fill="#0C264C"/>
<path d="M17.6425 25.997C16.4006 26.8684 15.1357 27.6999 13.847 28.4763C12.5589 29.252 11.2452 29.9738 9.91114 30.5979C9.24462 30.9098 8.57236 31.1952 7.90083 31.4415C7.23023 31.6862 6.55691 31.8918 5.91081 32.0235C5.58866 32.0887 5.2739 32.1336 4.983 32.15C4.69353 32.1666 4.42473 32.1545 4.22342 32.1125C4.12411 32.0909 4.04422 32.0621 3.98576 32.0352C3.93254 32.0051 3.90358 31.9767 3.89629 31.959C3.88851 31.9408 3.906 31.9311 3.91799 31.9264C3.9305 31.9219 3.94198 31.9203 3.94657 31.8949C3.95296 31.8549 3.9407 31.7183 3.96087 31.5194C3.96865 31.4412 3.98154 31.3536 3.9975 31.2619C2.83281 29.5673 1.92452 27.6828 1.32424 25.6651C1.0867 26.2428 0.865758 26.8361 0.666642 27.4502C0.405491 28.2772 0.17689 29.1365 0.060611 30.1035C0.0048327 30.588 -0.0223539 31.1024 0.0224474 31.6669C0.0475923 31.9509 0.087926 32.2448 0.168083 32.5572C0.242879 32.8648 0.358902 33.192 0.525599 33.5149C0.845079 34.166 1.44154 34.7792 2.09607 35.114C2.42117 35.2835 2.74946 35.3952 3.06319 35.4684C3.37424 35.5363 3.67152 35.5689 3.95233 35.5785C4.51202 35.5938 5.00853 35.5264 5.4729 35.4322C5.93635 35.3361 6.36586 35.2073 6.77671 35.0626C7.59655 34.7705 8.3468 34.4165 9.06656 34.0347C9.78491 33.6516 10.4712 33.2394 11.137 32.8075C12.4679 31.9435 13.7219 31.0073 14.9321 30.0296C16.1416 29.0514 17.3059 28.0311 18.4357 26.9799C20.6938 24.8761 22.8158 22.6511 24.8254 20.3416C22.519 22.3528 20.1261 24.2527 17.6425 25.997Z" fill="#0C264C"/>
<path d="M30.1936 20.2606C28.6401 19.7198 25.3603 18.6508 24.1693 18.8213C22.5857 19.0481 21.9072 19.1993 20.55 18.9726C19.1928 18.7459 18.5142 18.5946 17.5339 18.4435C16.5536 18.2924 16.7045 17.7632 15.3472 17.7632C13.99 17.7632 12.3311 17.8388 12.3311 17.8388L9.54114 18.2168C9.54114 18.2168 9.16409 17.6877 8.56087 17.6121C7.95765 17.5365 7.5806 16.9318 6.7512 16.8561C5.92181 16.7805 5.46933 16.7805 5.09227 16.9318C4.71524 17.083 4.0367 17.1585 3.58422 17.1585C3.13175 17.1585 2.90557 16.9318 2.52851 16.9318C2.15148 16.9318 2.07604 16.7805 1.54825 16.7805C1.37428 16.7805 1.06897 16.797 0.738001 16.819C0.57705 17.8409 0.492554 18.888 0.492554 19.9553C0.492554 20.4712 0.512081 20.9826 0.550499 21.4887C4.89877 20.5624 12.1662 19.9553 20.3989 19.9553C23.8873 19.9551 27.2007 20.0644 30.1936 20.2606Z" fill="#0C264C"/>
<defs>
<linearGradient id="paint0_linear_4_184" x1="20.3992" y1="21.4884" x2="20.3992" y2="-1.28081e-05" gradientUnits="userSpaceOnUse">
<stop stop-color="#FF5E57"/>
<stop offset="0.6224" stop-color="#FFBD4A"/>
</linearGradient>
<linearGradient id="paint1_linear_4_184" x1="0.550815" y1="29.9325" x2="40.2476" y2="29.9325" gradientUnits="userSpaceOnUse">
<stop stop-color="#3784DE"/>
<stop offset="1" stop-color="#7BD2FD"/>
</linearGradient>
</defs>
</svg>
